<svg width="512" height="512" viewBox="0 0 512 512" fill="none" xmlns="http://www.w3.org/2000/svg"><defs><linearGradient id="g1" x1="0%" y1="50%" ><stop offset="0%" stop-color="#5c7b0b" ><animate id="a1" attributeName="stop-color" values="#5c7b0b; #c03f9b" begin="0; a2.end" dur="3s" /><animate id="a2" attributeName="stop-color" values="#c03f9b; #5c7b0b" begin="a1.end" dur="3s" /></stop><stop offset="100%" stop-color="#c03f9b" ><animate id="a3" attributeName="stop-color" values="#c03f9b; #5c7b0b" begin="0; a4.end" dur="3s" /><animate id="a4" attributeName="stop-color" values="#5c7b0b; #c03f9b" begin="a3.end" dur="3s" /></stop></linearGradient></defs><rect id="r" x="0" y="0" rx="15" ry="15" width="512" height="512" fill="url(#g1)" /><g fill="black" font-family="Verdana" font-size="17"><text x="15" y="60" >ERC20Mock</text><text x="15" y="90">Block: #12345</text><text x="15" y="120">ID: 17</text></g><g fill="#00A3FF"><path d="M169.773 240.488L167.432 244.079C141.034 284.574 146.93 337.608 181.606 371.585C202.007 391.573 228.743 401.569 255.481 401.571C255.481 401.571 255.481 401.571 169.773 240.488Z"/><path opacity="0.6" d="M255.483 289.445L169.774 240.488C255.483 401.571 255.483 401.571 255.483 401.571C255.483 366.489 255.483 326.289 255.483 289.445Z"/><path opacity="0.6" d="M341.275 240.488L343.616 244.079C370.014 284.574 364.118 337.608 329.442 371.585C309.042 391.573 282.305 401.569 255.567 401.571C255.567 401.571 255.567 401.571 341.275 240.488Z"/><path opacity="0.2" d="M255.566 289.445L341.274 240.488C255.566 401.571 255.566 401.571 255.566 401.571C255.566 366.489 255.566 326.289 255.566 289.445Z"/><path opacity="0.2" d="M255.584 180.09V264.527L329.412 222.336L255.584 180.09Z"/><path opacity="0.6" d="M255.584 180.09L181.703 222.335L255.584 264.527V180.09Z"/><path d="M255.584 109.054L181.703 222.338L255.584 179.974V109.054Z"/><path opacity="0.6" d="M255.584 179.975L329.468 222.341L255.584 109V179.975Z"/></g></svg>