<svg width="512" height="512" viewBox="0 0 512 512" fill="none" xmlns="http://www.w3.org/2000/svg">
<g fill="gray" >
<!-- <rect xmlns="http://www.w3.org/2000/svg" x="10" y="10" width="100" height="100" rx="15" ry="15"/> -->
<text x="15" y="60" font-family="Verdana" font-size="17">stETH</text>
<text x="15" y="90" font-family="Verdana" font-size="17">Block: #</text>
<text x="15" y="120" font-family="Verdana" font-size="17">ID: </text>
</g>

<g fill="#00A32F" >
<!-- <text x="150" y="350" font-family="Verdana" font-size="30">Rare</text> -->
<path d="M169.773 240.488L167.432 244.079C141.034 284.574 146.93 337.608 181.606 371.585C202.007 391.573 228.743 401.569 255.481 401.571C255.481 401.571 255.481 401.571 169.773 240.488Z"/>
<path opacity="0.6" d="M255.483 289.445L169.774 240.488C255.483 401.571 255.483 401.571 255.483 401.571C255.483 366.489 255.483 326.289 255.483 289.445Z"/>
<path opacity="0.6" d="M341.275 240.488L343.616 244.079C370.014 284.574 364.118 337.608 329.442 371.585C309.042 391.573 282.305 401.569 255.567 401.571C255.567 401.571 255.567 401.571 341.275 240.488Z"/>
<path opacity="0.2" d="M255.566 289.445L341.274 240.488C255.566 401.571 255.566 401.571 255.566 401.571C255.566 366.489 255.566 326.289 255.566 289.445Z"/>
<path opacity="0.2" d="M255.584 180.09V264.527L329.412 222.336L255.584 180.09Z"/>
<path opacity="0.6" d="M255.584 180.09L181.703 222.335L255.584 264.527V180.09Z"/>
<path d="M255.584 109.054L181.703 222.338L255.584 179.974V109.054Z"/>
<path opacity="0.6" d="M255.584 179.975L329.468 222.341L255.584 109V179.975Z"/>
</g >
</svg>
